<?xml version="1.0" encoding="utf-8"?>
<!-- Generator: Adobe Illustrator 23.0.4, SVG Export Plug-In . SVG Version: 6.00 Build 0)  -->
<svg version="1.1" id="Livello_1" xmlns="http://www.w3.org/2000/svg" xmlns:xlink="http://www.w3.org/1999/xlink" x="0px" y="0px"
	 viewBox="0 0 131.47 132.35" style="enable-background:new 0 0 131.47 132.35;" xml:space="preserve">
<style type="text/css">
	.st0{fill:#333333;}
</style>
<g>
	<path class="st0" d="M39.94,18.39c-0.97-2.21,0.04-4.76,2.23-5.72c2.21-0.97,4.75,0.02,5.72,2.23c0.96,2.19-0.02,4.75-2.23,5.72
		C43.47,21.58,40.9,20.57,39.94,18.39z"/>
	<path class="st0" d="M63.61,4.94l1.3,18.12l-4.54,0.33l-1.3-18.12l-6.92,0.5l-0.28-3.9l18.39-1.32l0.28,3.9L63.61,4.94z"/>
	<path class="st0" d="M86.31,27.95l3.56-8.82l-8.39-3.39l-3.56,8.82l-4.22-1.7L81.96,2.4l4.22,1.7l-3.24,8.02l8.39,3.39l3.24-8.02
		l4.22,1.7l-8.26,20.46L86.31,27.95z"/>
	<path class="st0" d="M93.86,33.26l15.06-16.13l3.33,3.11L97.19,36.37L93.86,33.26z"/>
	<path class="st0" d="M121.48,45.93l-2.18-4.07c2.02-1.08,2.57-2.88,1.39-5.1c-0.95-1.78-2.47-2.51-3.72-1.84
		c-1.5,0.8-1.37,2.24-0.5,5.71c1.05,4.14,1.79,7.83-2.44,10.09c-3.69,1.97-7.78,0.22-10.21-4.31c-2.58-4.84-1.8-9.16,2.63-11.52
		l2.22,4.15c-2.35,1.26-2.89,3.2-1.57,5.68c1.1,2.05,2.75,2.85,4.28,2.03c1.72-0.92,1.38-2.35,0.61-5.49
		c-1.03-4.16-1.93-7.96,2.33-10.24c3.42-1.83,7.33-0.16,9.61,4.11C126.53,40,125.66,43.7,121.48,45.93z"/>
	<path class="st0" d="M109.4,65.07l22.07,0.47l-0.1,4.56l-22.07-0.47L109.4,65.07z"/>
	<path class="st0" d="M118.5,94.09l1.57-4.34c2.16,0.78,3.86-0.02,4.72-2.39c0.68-1.9,0.21-3.52-1.13-4
		c-1.6-0.58-2.58,0.49-4.57,3.46c-2.37,3.56-4.61,6.57-9.13,4.95c-3.94-1.42-5.38-5.63-3.64-10.47c1.86-5.16,5.59-7.47,10.32-5.77
		l-1.6,4.43c-2.51-0.9-4.31-0.01-5.27,2.65c-0.79,2.19-0.27,3.95,1.36,4.54c1.84,0.66,2.67-0.55,4.49-3.22
		c2.4-3.55,4.62-6.77,9.17-5.13c3.65,1.31,5.03,5.34,3.39,9.89C126.29,93.87,122.96,95.7,118.5,94.09z"/>
	<path class="st0" d="M79.56,108.81l5.31,9.6c1.33,2.41,2.62,4.86,3.84,7.33l0.05-0.03c-0.68-2.7-1.31-5.51-1.87-8.24l-2.32-11.43
		l4.56-2.52l8.45,8.04c2.02,1.93,4.06,3.95,5.99,5.96l0.05-0.03c-1.44-2.35-2.83-4.74-4.17-7.15l-5.31-9.6l3.82-2.11l10.68,19.31
		l-6.4,3.54l-7.7-7.32c-2.02-1.93-4.01-3.98-5.83-6.05l-0.05,0.03c0.79,2.64,1.47,5.42,2.03,8.15l2.11,10.41l-6.4,3.54l-10.68-19.31
		L79.56,108.81z"/>
	<path class="st0" d="M62.6,110.14l4.56,0.09l-0.18,8.58l7.25,13.64l-5.11-0.11l-2.02-4.2c-0.89-1.85-1.72-3.76-2.46-5.66l-0.06,0
		c-0.81,1.87-1.72,3.75-2.69,5.56l-2.19,4.11l-5.08-0.11l7.81-13.33L62.6,110.14z"/>
	<path class="st0" d="M24.66,109.45l3.72,2.73c-1.36,1.85-1.07,3.71,0.96,5.19c1.62,1.19,3.31,1.2,4.15,0.05
		c1.01-1.37,0.26-2.61-2.02-5.36c-2.75-3.28-5-6.28-2.17-10.15c2.47-3.37,6.92-3.57,11.07-0.53c4.42,3.24,5.59,7.47,2.62,11.52
		l-3.8-2.78c1.57-2.15,1.22-4.13-1.05-5.8c-1.88-1.37-3.71-1.38-4.74,0.02c-1.15,1.57-0.22,2.72,1.82,5.22
		c2.73,3.3,5.19,6.34,2.33,10.24c-2.29,3.12-6.54,3.31-10.44,0.46C22.68,116.99,21.86,113.28,24.66,109.45z"/>
	<path class="st0" d="M11.36,95.77l15.68-9.16l2.3,3.93L13.65,99.7l3.5,6l-3.37,1.97l-9.3-15.92l3.37-1.97L11.36,95.77z"/>
	<path class="st0" d="M10.57,60.73c7.13-0.58,11.81,3.01,12.34,9.47c0.53,6.46-3.5,10.77-10.63,11.35
		c-7.13,0.58-11.81-3.01-12.34-9.47S3.43,61.32,10.57,60.73z M11.89,76.86c4.63-0.38,7.3-2.77,7.01-6.33
		c-0.29-3.55-3.31-5.48-7.94-5.1c-4.63,0.38-7.3,2.77-7.01,6.33C4.24,75.31,7.26,77.24,11.89,76.86z"/>
	<path class="st0" d="M5.42,40.97c2.15-5.12,5.23-6.54,8.86-5.02c2.49,1.04,3.74,3.25,3.41,5.8l0.06,0.02
		c1.11-1.21,2.26-1.54,5.23-1.4l6.48,0.33l-1.92,4.57l-5.51-0.4c-2.48-0.17-3.6,0.34-4.44,2.34l-0.97,2.31l7.77,3.26l-1.76,4.2
		L2.28,48.45L5.42,40.97z M13.28,48.13l1.25-2.97c1.07-2.54,0.33-4-1.53-4.77c-1.97-0.83-3.39,0.16-4.4,2.56l-1.15,2.74L13.28,48.13
		z"/>
	<path class="st0" d="M37.46,33.53l-3.3,3.14l-5.91-6.22L13.5,25.86l3.71-3.52l4.39,1.56c1.93,0.69,3.86,1.46,5.73,2.29l0.04-0.04
		c-0.74-1.9-1.41-3.87-2-5.84l-1.33-4.46l3.68-3.5l3.83,14.96L37.46,33.53z"/>
</g>
</svg>
